P1
# CREATOR: GIMP PNM Filter Version 1.1
111 111
0000000000000000000000000000000000000000000000000000000000000000000000
0000000000000000000000000000000000000000000000000000000000000000000000
0000000000000000000000000000000000000000000000000000000000000000000000
0000000000000000000000000000000000000000000000000000000000000000000000
0000000000000000000000000000000000000000000000000000000000000000000000
0000000000000000000000000000000000000000000000000000000000000000000000
0000000000000000000000000000000000000000000000000000000000000000000000
0000000000000000000000000000000000000000000000000000000000000000000000
0000000000000000000000000000000000000000000000000000000000000000000000
0000000000000000000000000000000000000000000000000000000000000000000000
0000000000000000000000000000000000000000000000000000000000000000000000
0000000000000000000000000000000000000000000000000000000000000000000000
0000000000000000000000000000000000000000000000000000000000000000000000
0000000000000000000000000000000000000000000000000000000000000000000000
0000000000000000000000000000000000000000000000000000000000000000000000
0000000000000000000000000000000000000000000000000000000000000000000000
0000000000000000000000000000000000000000000000000000000000000000000000
0000000000000000000000000000000000000000000000000000000000000000000000
0000000000000000000000000000000000000000000000000000000000000000000000
0000000000000011111111111111111111100000011111111100011111111111111111
1000000000111111111111111111111000000000000000000000000111111111111111
1111110000001111111110001111111111111111110000000001111111111111111111
1100000000000000000000000011111111111111111111100000011111111100011111
1111111111111000000000111111111111111111111000000000000000000000000111
0000000000000001110001111111111111110000001110001111111111110001110000
0000000000011100000000000000000000000011100000000000000011100011111111
1111111000000111000111111111111000111000000000000000111000000000000000
0000000001110000000000000001110001111111111111110000001110001111111111
1100011100000000000000011100000000000000000000000011100011111111100011
1000000000000111000000111000111000000000000000111000111111111000111000
0000000000000000000001110001111111110001110000000000001110000001110001
1100000000000000011100011111111100011100000000000000000000000011100011
1111111000111000000000000111000000111000111000000000000000111000111111
1110001110000000000000000000000001110001111111110001110001111111111110
0011111100000011100000000000011100011111111100011100000000000000000000
0000111000111111111000111000111111111111000111111000000111000000000000
1110001111111110001110000000000000000000000001110001111111110001110001
1111111111100011111100000011100000000000011100011111111100011100000000
0000000000000000111000111111111000111000111000111000000000111111111111
0001110000001110001111111110001110000000000000000000000001110001111111
1100011100011100011100000000011111111111100011100000011100011111111100
0111000000000000000000000000111000111111111000111000111000111000000000
1111111111110001110000001110001111111110001110000000000000000000000001
1100000000000000011100000011100011111100011100011100000000011100011100
0000000000000111000000000000000000000000111000000000000000111000000111
0001111110001110001110000000001110001110000000000000001110000000000000
0000000000011100000000000000011100000011100011111100011100011100000000
0111000111000000000000000111000000000000000000000000111111111111111111
1110001110001110001110001110001110001110001110001111111111111111111110
0000000000000000000000011111111111111111111100011100011100011100011100
0111000111000111000111111111111111111111000000000000000000000000111111
1111111111111110001110001110001110001110001110001110001110001111111111
1111111111100000000000000000000000000000000000000000000000011100011111
1000111111000111000000111111000000000000000000000000000000000000000000
0000000000000000000000000000001110001111110001111110001110000001111110
0000000000000000000000000000000000000000000000000000000000000000000000
0111000111111000111111000111000000111111000000000000000000000000000000
0000000000000000000001110001111111111110001110000000000000000001110001
1111100011111111100011111100011100000000000000000000000000000011100011
1111111111000111000000000000000000111000111111000111111111000111111000
1110000000000000000000000000000001110001111111111110001110000000000000
0000011100011111100011111111100011111100011100000000000000000000000000
0111111000111000000000000111000111000111000111111111000111111000000000
1111110001111110000000000000000000000000001111110001110000000000001110
0011100011100011111111100011111100000000011111100011111100000000000000
0000000000000111111000111000000000000111000111000111000111111111000111
1110000000001111110001111110000000000000000000000000001110000001111111
1111111100000011111100000011111100011100000000000011100011111100000000
0000000000000000000000000111000000111111111111111000000111111000000111
1110001110000000000001110001111110000000000000000000000000000000001110
0000011111111111111100000011111100000011111100011100000000000011100011
1111000000000000000000000000000000000000000000111000000000111000000000
1110000000001111111111111111111110001111111110000001110000000000000000
0000000000000000011100000000011100000000011100000000011111111111111111
1111000111111111000000111000000000000000000000000000000000111000000000
1110000000001110000000001111111111111111111110001111111110000001110000
0000000000000000000000000000000000011111111111100000000000000000000011
1000000000111111111111000111000111000000000000000000000000000000000000
0000001111111111110000000000000000000001110000000001111111111110001110
0011100000000000000000000000000000000000000000011111111111100000000000
0000000000111000000000111111111111000111000111000000000000000000000000
0000001111111110000000000001111110001110000000000001111111110000000001
1100011100011100011100000000000000000000000000011111111100000000000011
1111000111000000000000111111111000000000111000111000111000111000000000
0000000000000000001111111110000000000001111110001110000000000001111111
1100000000011100011100011100011100000000000000000000000000011111100011
1111111111111000111000000111000000000111000111000111111000000111000000
1110000000000000000000000000001111110001111111111111110001110000001110
0000000011100011100011111100000011100000011100000000000000000000000000
0111111000111111111111111000111000000111000000000111000111000111111000
0001110000001110000000000000000000000000001110000000001110001111111111
1100011100000011100000011111111111100000000011111111111100000000000000
0000000000000111000000000111000111111111111000111000000111000000111111
1111110000000001111111111110000000000000000000000000001110000000001110
0011111111111100011100000011100000011111111111100000000011111111111100
0000000000000000000000000000111000111000111000111000111111000111000111
0000000000001110000001110001110001110000000000000000000000000000000001
1100011100011100011100011111100011100011100000000000011100000011100011
1000111000000000000000000000000000000000111000111000111000111000111111
0001110001110000000000001110000001110001110001110000000000000000000000
0000011111100000000011100011100000000011100000011100000000000011111100
0000000111000111000000000000000000000000000000111111000000000111000111
0000000001110000001110000000000001111110000000001110001110000000000000
0000000000000000011111100000000011100011100000000011100000011100000000
0000111111000000000111000111000000000000000000000000000000111111000000
0000001111110000001111110000001110001110000001111110000001111110000000
0011100000000000000000000000011111100000000000011111100000011111100000
0111000111000000111111000000111111000000000111000000000000000000000000
1111110000000000001111110000001111110000001110001110000001111110000001
1111100000000011100000000000000000000000011111111100011100000011100000
0111000111000000111111000000000000111111000111000111111111000000000000
0000000000001111111110001110000001110000001110001110000001111110000000
0000011111100011100011111111100000000000000000000000011111111100011100
0000111000000111000111000000111111000000000000111111000111000111111111
0000000000000000000000001111111110000000001110001110001111111110000000
0011111100000011111111111111100011100000000000000000000000000000011111
1111000000000111000111000111111111000000000111111000000111111111111111
0001110000000000000000000000000000001111111110000000001110001110001111
1111100000000011111100000011111111111111100011100000000000000000000000
0000000000000000000000000000000111111111111000111111111000000111111111
0000000001111111110000000000000000000000000000000000000000000000000000
0011111111111100011111111100000011111111100000000011111111100000000000
0000000000000000000000000000000000000000000111111111111000111111111000
0001111111110000000001111111110000000000000000000000000000001111111111
1111111111100000011111111100000000011100011100011111100011100011100011
1000000000000000000000000000000111111111111111111111000000111111111000
0000001110001110001111110001110001110001110000000000000000000000000000
0011111111111111111111100000011111111100000000011100011100011111100011
1000111000111000000000000000000000000000000111000000000000000111000111
0001111110001110001110001110001111110000000001111110000001110000000000
0000000000000011100000000000000011100011100011111100011100011100011100
0111111000000000111111000000111000000000000000000000000111000000000000
0001110001110001111110001110001110001110001111110000000001111110000001
1100000000000000000000000011100011111111100011100011100000011100011100
0000111000000111111111111111111000000111000000000000000000000000000111
0001111111110001110001110000001110001110000001110000001111111111111111
1100000011100000000000000000000000000011100011111111100011100011100000
0111000111000000111000000111111111111111111000000111000000000000000000
0000000001110001111111110001110001110001111110000001110000001111111110
0011100011100011111111100000000000000000000000000011100011111111100011
1000111000111111000000111000000111111111000111000111000111111111000000
0000000000000000000001110001111111110001110001110001111110000001110000
0011111111100011100011100011111111100000000000000000000000000011100011
1111111000111000000000000000111000111111000000000111000111000000111000
1111111110000000000000000000000001110001111111110001110000000000000001
1100011111100000000011100011100000011100011111111100000000000000000000
0000111000111111111000111000000000000000111000111111000000000111000111
0000001110001111111110000000000000000000000001110000000000000001110001
1100000000011100011111111100011100000011111100011111111100011100000000
0000000000000000111000000000000000111000111000000000111000111111111000
1110000001111110001111111110001110000000000000000000000001110000000000
0000011100011100000000011100011111111100011100000011111100011111111100
0111000000000000000000000000111111111111111111111000000000111111111000
1110000000001110001110000001111111110000000000000000000000000000000001
1111111111111111111100000000011111111100011100000000011100011100000011
1111111000000000000000000000000000000000111111111111111111111000000000
1111111110001110000000001110001110000001111111110000000000000000000000
0000000000000000000000000000000000000000000000000000000000000000000000
0000000000000000000000000000000000000000000000000000000000000000000000
0000000000000000000000000000000000000000000000000000000000000000000000
0000000000000000000000000000000000000000000000000000000000000000000000
0000000000000000000000000000000000000000000000000000000000000000000000
0000000000000000000000000000000000000000000000000000000000000000000000
0000000000000000000000000000000000000000000000000000000000000000000000
0000000000000000000000000000000000000000000000000000000000000000000000
0000000000000000000000000000000000000000000000000000000000000000000000
0000000000000000000000000000000000000000000000000000000000000000000000
0000000000000000000000000000000000000000000000000000000000000000000000
0000000000000000000000000000000000000000000000000000000000000000000000
0000000000000000000000000000000000000000000000000000000000000000000000
0000000000000000000000000000000000000000000000000000000000000000000000
0000000000000000000000000000000000000000000000000000000000000000000000
0000000000000000000000000000000000000000000000000000000000000000000000
0000000000000000000000000000000000000000000000000000000000000000000000
0000000000000000000000000000000000000000000000000000000000000000000000
0000000000000000000000000000000000000000000000000000000000000000000000
0